# xmcd
#
# Track frame offsets:
#	150
#	15773
#	32899
#	47113
#	64362
#	82930
#	99760
#	115644
#	131391
#	147138
#	162075
#	179105
#
# Disc length: 2611 seconds
#
# Revision: 1
# Processed by: cddbd v1.5.2PL0 Copyright (c) Steve Scherf et al.
# Submitted via: audiograbber 1.83.01
#
DISCID=900a310c
DTITLE=Trace Adkins - Something's Going On
DYEAR=2017
DGENRE=Country
TTITLE0=Ain't Just the Whiskey Talkin'
TTITLE1=Jesus and Jones
TTITLE2=Watered Down
TTITLE3=Something's Going On
TTITLE4=If Only You Were Lonely
TTITLE5=Gonna Make You Miss Me
TTITLE6=I'm Gone
TTITLE7=Country Boy Problems
TTITLE8=Lit
TTITLE9=Still a Soldier
TTITLE10=Whippoorwills and Freight Trains
TTITLE11=Hang
EXTD=
EXTT0=
EXTT1=
EXTT2=
EXTT3=
EXTT4=
EXTT5=
EXTT6=
EXTT7=
EXTT8=
EXTT9=
EXTT10=
EXTT11=
PLAYORDER=
